<?xml version="1.0" encoding="utf-8"?>
<!-- Generator: Adobe Illustrator 24.0.1, SVG Export Plug-In . SVG Version: 6.00 Build 0)  -->
<svg version="1.1" id="Layer_1" xmlns="http://www.w3.org/2000/svg" xmlns:xlink="http://www.w3.org/1999/xlink" x="0px" y="0px"
	 viewBox="0 0 240.9 198.4" style="enable-background:new 0 0 240.9 198.4;" xml:space="preserve">
<style type="text/css">
	.st0{fill:url(#SVGID_1_);}
</style>
<linearGradient id="SVGID_1_" gradientUnits="userSpaceOnUse" x1="74.4037" y1="56.6936" x2="166.5409" y2="148.8308">
	<stop  offset="9.536743e-07" style="stop-color:#1200DA"/>
	<stop  offset="0.8" style="stop-color:#FF5D51"/>
</linearGradient>
<path class="st0" d="M176.5,93.7h-34.1l24.1-24.1c3.6-3.6,3.6-9.3,0-12.9c-3.6-3.6-9.3-3.6-12.9,0l-24.1,24.1V46.7
	c0-5-4.1-9.1-9.1-9.1c-5,0-9.1,4.1-9.1,9.1v34.1L87.3,56.7c-3.6-3.6-9.3-3.6-12.9,0c-3.6,3.6-3.6,9.3,0,12.9l24.1,24.1H64.4
	c-5,0-9.1,4.1-9.1,9.1c0,5,4.1,9.1,9.1,9.1h34.1L74.4,136c-3.6,3.6-3.6,9.3,0,12.9c3.6,3.6,9.3,3.6,12.9,0l24.1-24.1v34.1
	c0,5,4.1,9.1,9.1,9.1c5,0,9.1-4.1,9.1-9.1v-34.1l24.1,24.1c3.6,3.6,9.3,3.6,12.9,0c3.6-3.6,3.6-9.3,0-12.9l-24.1-24.1h34.1
	c5,0,9.1-4.1,9.1-9.1C185.6,97.7,181.5,93.7,176.5,93.7z"/>
</svg>
